<svg width="20" height="20" viewBox="0 0 20 20" fill="none" xmlns="http://www.w3.org/2000/svg">
<path fill-rule="evenodd" clip-rule="evenodd" d="M8.23055 12.6718C5.02721 12.6718 2.29138 13.156 2.29138 15.096C2.29138 17.036 5.01055 17.5377 8.23055 17.5377C11.4347 17.5377 14.1697 17.0527 14.1697 15.1135C14.1697 13.1743 11.4514 12.6718 8.23055 12.6718Z" stroke="white" stroke-linecap="round" stroke-linejoin="round"/>
<path fill-rule="evenodd" clip-rule="evenodd" d="M8.23054 9.90492C10.333 9.90492 12.0372 8.20075 12.0372 6.09825C12.0372 3.99575 10.333 2.29158 8.23054 2.29158C6.12887 2.29158 4.42471 3.99575 4.42471 6.09825C4.41721 8.19325 6.10887 9.89742 8.20471 9.90492H8.23054Z" stroke="white" stroke-linecap="round" stroke-linejoin="round"/>
<path d="M16.0031 7.22425V10.5659" stroke="white" stroke-linecap="round" stroke-linejoin="round"/>
<path d="M17.708 8.895H14.2997" stroke="white" stroke-linecap="round" stroke-linejoin="round"/>
</svg>
