<svg width="43" height="43" viewBox="0 0 43 43" fill="none" xmlns="http://www.w3.org/2000/svg">
<path fill-rule="evenodd" clip-rule="evenodd" d="M17.0208 22.4921C21.9561 22.4921 25.9122 18.4848 25.9122 13.4857C25.9122 8.48654 21.9561 4.47925 17.0208 4.47925C12.0856 4.47925 8.12946 8.48654 8.12946 13.4857C8.12946 18.4848 12.0856 22.4921 17.0208 22.4921ZM17.021 26.9023C9.77231 26.9023 3.5835 28.0613 3.5835 32.6916C3.5835 37.3202 9.73465 38.5209 17.021 38.5209C24.2679 38.5209 30.4585 37.362 30.4585 32.7316C30.4585 28.1012 24.3073 26.9023 17.021 26.9023ZM35.6507 17.1783H37.8062C38.6935 17.1783 39.4169 17.9119 39.4169 18.8116C39.4169 19.7114 38.6935 20.445 37.8062 20.445H35.6507V22.5543C35.6507 23.454 34.9291 24.1876 34.0401 24.1876C33.1528 24.1876 32.4294 23.454 32.4294 22.5543V20.445H30.2776C29.3885 20.445 28.6669 19.7114 28.6669 18.8116C28.6669 17.9119 29.3885 17.1783 30.2776 17.1783H32.4294V15.0709C32.4294 14.1712 33.1528 13.4376 34.0401 13.4376C34.9291 13.4376 35.6507 14.1712 35.6507 15.0709V17.1783Z" fill="white"/>
</svg>
