<svg width="27" height="27" viewBox="0 0 27 27" fill="none" xmlns="http://www.w3.org/2000/svg">
<g id="Iconly/Light/Buy">
<g id="Buy">
<path id="Stroke 1" d="M3.09375 3.65613L5.43375 4.06113L6.51713 16.9683C6.60375 18.0224 7.48463 18.8313 8.54213 18.8279H20.8148C21.8239 18.8301 22.68 18.0876 22.8229 17.0886L23.8905 9.71088C24.0098 8.88625 23.4371 8.12125 22.6136 8.002C22.5416 7.99188 5.8095 7.98625 5.8095 7.98625" stroke="white" stroke-width="1.5" stroke-linecap="round" stroke-linejoin="round"/>
<path id="Stroke 3" d="M15.8906 12.1442H19.0102" stroke="white" stroke-width="1.5" stroke-linecap="round" stroke-linejoin="round"/>
<path id="Stroke 5" fill-rule="evenodd" clip-rule="evenodd" d="M8.04852 22.7278C8.38715 22.7278 8.66052 23.0023 8.66052 23.3398C8.66052 23.6784 8.38715 23.9529 8.04852 23.9529C7.7099 23.9529 7.43652 23.6784 7.43652 23.3398C7.43652 23.0023 7.7099 22.7278 8.04852 22.7278Z" fill="white" stroke="white" stroke-width="1.5" stroke-linecap="round" stroke-linejoin="round"/>
<path id="Stroke 7" fill-rule="evenodd" clip-rule="evenodd" d="M20.739 22.7278C21.0776 22.7278 21.3521 23.0023 21.3521 23.3398C21.3521 23.6784 21.0776 23.9529 20.739 23.9529C20.4003 23.9529 20.127 23.6784 20.127 23.3398C20.127 23.0023 20.4003 22.7278 20.739 22.7278Z" fill="white" stroke="white" stroke-width="1.5" stroke-linecap="round" stroke-linejoin="round"/>
</g>
</g>
</svg>
