<svg width="50" height="50" viewBox="0 0 50 50" fill="none" xmlns="http://www.w3.org/2000/svg">
<circle cx="25" cy="25" r="25" fill="white"/>
<g clip-path="url(#clip0)">
<path fill-rule="evenodd" clip-rule="evenodd" d="M33.186 15.1786V13.5417C33.186 13.1076 33.0135 12.6912 32.7065 12.3842C32.3996 12.0772 31.9832 11.9048 31.5491 11.9048H18.4538C18.0197 11.9048 17.6033 12.0772 17.2964 12.3842C16.9894 12.6912 16.8169 13.1076 16.8169 13.5417V15.1786C15.4614 15.2361 14.1838 15.828 13.2635 16.825C12.3432 17.8219 11.8552 19.1427 11.9062 20.4985C11.8552 21.8543 12.3432 23.1752 13.2635 24.1721C14.1838 25.1691 15.4614 25.761 16.8169 25.8185H16.9806C17.3221 27.5371 18.2062 29.1007 19.5027 30.2793C20.7992 31.458 22.4397 32.1894 24.183 32.3661V36.4584H20.9092C20.6921 36.4584 20.4839 36.5446 20.3305 36.6981C20.177 36.8516 20.0907 37.0597 20.0907 37.2768C20.0907 37.4939 20.177 37.7021 20.3305 37.8555C20.4839 38.009 20.6921 38.0953 20.9092 38.0953H29.0937C29.3108 38.0953 29.519 38.009 29.6725 37.8555C29.8259 37.7021 29.9122 37.4939 29.9122 37.2768C29.9122 37.0597 29.8259 36.8516 29.6725 36.6981C29.519 36.5446 29.3108 36.4584 29.0937 36.4584H25.8199V32.3661C27.5632 32.1894 29.2037 31.458 30.5002 30.2793C31.7967 29.1007 32.6808 27.5371 33.0223 25.8185H33.186C34.5415 25.761 35.8191 25.1691 36.7394 24.1721C37.6597 23.1752 38.1477 21.8543 38.0967 20.4985C38.1477 19.1427 37.6597 17.8219 36.7394 16.825C35.8191 15.828 34.5415 15.2361 33.186 15.1786ZM16.8169 24.1816C15.8954 24.1246 15.0338 23.7053 14.4204 23.0152C13.807 22.3252 13.4916 21.4204 13.5431 20.4985C13.4916 19.5767 13.807 18.6719 14.4204 17.9818C15.0338 17.2917 15.8954 16.8724 16.8169 16.8155V24.1816ZM31.5491 23.9688C31.5632 24.8426 31.405 25.7107 31.0835 26.5234C30.7621 27.3361 30.2837 28.0775 29.6756 28.7053C29.0676 29.3331 28.3419 29.8349 27.5399 30.1822C26.7379 30.5295 25.8753 30.7153 25.0015 30.7292C24.1276 30.7153 23.265 30.5295 22.463 30.1822C21.661 29.8349 20.9353 29.3331 20.3273 28.7053C19.7192 28.0775 19.2408 27.3361 18.9194 26.5234C18.5979 25.7107 18.4398 24.8426 18.4538 23.9688V15.1786C18.4538 14.7445 18.6263 14.3281 18.9333 14.0211C19.2403 13.7141 19.6566 13.5417 20.0907 13.5417H29.9122C30.3463 13.5417 30.7627 13.7141 31.0696 14.0211C31.3766 14.3281 31.5491 14.7445 31.5491 15.1786V23.9688ZM33.186 24.1816V16.8155C34.1075 16.8724 34.9691 17.2917 35.5825 17.9818C36.1959 18.6719 36.5113 19.5767 36.4598 20.4985C36.5113 21.4204 36.1959 22.3252 35.5825 23.0152C34.9691 23.7053 34.1075 24.1246 33.186 24.1816Z" fill="#6C5ECF"/>
</g>
<defs>
<clipPath id="clip0">
<rect width="26.1905" height="26.1905" fill="white" transform="translate(11.9048 11.9048)"/>
</clipPath>
</defs>
</svg>
