<svg width="26" height="26" viewBox="0 0 26 26" fill="none" xmlns="http://www.w3.org/2000/svg">
<path d="M20.6364 5.72001H18.0702V4.19381C18.0702 3.88208 18.0088 3.5734 17.8895 3.28539C17.7702 2.99739 17.5954 2.73571 17.375 2.51528C17.1545 2.29485 16.8928 2.12 16.6048 2.0007C16.3168 1.88141 16.0082 1.82001 15.6964 1.82001H5.36403C4.73446 1.82001 4.13068 2.0701 3.6855 2.51528C3.24033 2.96045 2.99023 3.56424 2.99023 4.19381V17.9062C2.99023 18.5358 3.24033 19.1396 3.6855 19.5847C4.13068 20.0299 4.73446 20.28 5.36403 20.28H7.93023V21.8062C7.93023 22.4358 8.18033 23.0396 8.6255 23.4847C9.07068 23.9299 9.67446 24.18 10.304 24.18H20.6364C21.266 24.18 21.8698 23.9299 22.315 23.4847C22.7601 23.0396 23.0102 22.4358 23.0102 21.8062V8.09381C23.0102 7.46424 22.7601 6.86045 22.315 6.41528C21.8698 5.9701 21.266 5.72001 20.6364 5.72001ZM5.36403 18.98C5.07924 18.98 4.80612 18.8669 4.60474 18.6655C4.40337 18.4641 4.29023 18.191 4.29023 17.9062V4.19381C4.29023 3.90902 4.40337 3.63589 4.60474 3.43452C4.80612 3.23314 5.07924 3.12001 5.36403 3.12001H15.6964C15.9812 3.12001 16.2543 3.23314 16.4557 3.43452C16.6571 3.63589 16.7702 3.90902 16.7702 4.19381V5.72001H10.304C9.67446 5.72001 9.07068 5.9701 8.6255 6.41528C8.18033 6.86045 7.93023 7.46424 7.93023 8.09381V18.98H5.36403ZM21.7102 21.8062C21.7102 22.091 21.5971 22.3641 21.3957 22.5655C21.1943 22.7669 20.9212 22.88 20.6364 22.88H10.304C10.0192 22.88 9.74612 22.7669 9.54474 22.5655C9.34337 22.3641 9.23023 22.091 9.23023 21.8062V8.09381C9.23023 7.80902 9.34337 7.53589 9.54474 7.33452C9.74612 7.13314 10.0192 7.02001 10.304 7.02001H20.6364C20.9212 7.02001 21.1943 7.13314 21.3957 7.33452C21.5971 7.53589 21.7102 7.80902 21.7102 8.09381V21.8062Z" fill="#ABB2CB"/>
</svg>
