<svg width="28" height="28" viewBox="0 0 28 28" fill="none" xmlns="http://www.w3.org/2000/svg">
<path d="M22.8941 9.29404C22.7458 9.21917 22.5749 9.23328 22.4396 9.33095L17.6809 12.7985L14.3531 8.25732C14.2699 8.14445 14.1394 8.07825 13.9991 8.07825C13.8594 8.07825 13.7282 8.14445 13.6453 8.25732L10.3154 12.7985L5.55436 9.33095C5.42307 9.23328 5.25367 9.21917 5.10499 9.29404C4.95631 9.36964 4.87158 9.52084 4.87158 9.68473V16.6972C4.87158 16.9395 5.05523 17.136 5.29542 17.136H22.7027C22.9443 17.136 23.1276 16.9395 23.1276 16.6972V9.6847C23.1276 9.52084 23.0432 9.36964 22.8941 9.29404Z" fill="white"/>
<path d="M22.7027 18.536H5.29542C5.05523 18.536 4.87158 18.7258 4.87158 18.9682V19.2254V19.4826C4.87158 19.725 5.05523 19.9081 5.29542 19.9081H22.7027C22.9443 19.9081 23.1276 19.725 23.1276 19.4826V19.2254V18.9682C23.1276 18.7258 22.9443 18.536 22.7027 18.536Z" fill="white"/>
</svg>
