<svg width="38" height="38" viewBox="0 0 38 38" fill="none" xmlns="http://www.w3.org/2000/svg">
<rect width="38" height="38" rx="10" fill="#6C5ECF"/>
<g clip-path="url(#clip0)">
<path d="M31 9.21294C31 9.11294 30.9 9.01294 30.9 9.01294C30.8 9.01294 30.8 9.01294 30.7 9.11294C28.7 12.2079 26.601 15.3039 24.602 18.4999H7.20902C7.00902 18.4999 6.90902 18.7999 7.10902 18.8999C14.306 21.5959 24.802 25.6899 30.6 27.9869C30.8 28.0869 31 27.8869 31 27.7869V9.21294Z" fill="white"/>
<path d="M24.64 18.4399C24.628 18.4599 24.615 18.4799 24.603 18.4999H7.20902C7.00902 18.4999 6.90902 18.7999 7.10902 18.8999C14.306 21.5959 24.802 25.6899 30.6 27.9869C30.638 28.0059 30.676 28.0139 30.713 28.0139C30.866 28.0139 30.994 27.8729 30.999 27.7919L24.64 18.4399Z" fill="#C8C8C8"/>
</g>
<defs>
<clipPath id="clip0">
<rect width="24" height="24" fill="white" transform="translate(7 7)"/>
</clipPath>
</defs>
</svg>
