<svg width="30" height="30" viewBox="0 0 30 30" fill="none" xmlns="http://www.w3.org/2000/svg">
<g id="Iconly/Bold/Info Circle">
<g id="Info Circle">
<path id="Info Circle_2" fill-rule="evenodd" clip-rule="evenodd" d="M2.5 14.999C2.5 8.10027 8.1 2.49902 15 2.49902C21.9125 2.49902 27.5 8.10027 27.5 14.999C27.5 21.9003 21.9125 27.499 15 27.499C8.1 27.499 2.5 21.9003 2.5 14.999ZM13.9 10.2615C13.9 9.66279 14.4 9.16154 15 9.16154C15.6 9.16154 16.0875 9.66279 16.0875 10.2615V15.7865C16.0875 16.3878 15.6 16.874 15 16.874C14.4 16.874 13.9 16.3878 13.9 15.7865V10.2615ZM15.0125 20.8503C14.4 20.8503 13.9125 20.3503 13.9125 19.7502C13.9125 19.1502 14.4 18.6628 15 18.6628C15.6125 18.6628 16.1 19.1502 16.1 19.7502C16.1 20.3503 15.6125 20.8503 15.0125 20.8503Z" fill="white"/>
</g>
</g>
</svg>
