<svg width="152" height="100" viewBox="0 0 152 100" fill="none" xmlns="http://www.w3.org/2000/svg">
<path d="M151.968 57.1608C151.962 56.8852 151.782 54.1071 147.55 49.5936C143.591 45.3738 129.738 37.9389 128.051 37.0413C127.992 37.0095 127.948 36.9859 127.924 36.9742L127.896 36.9587C127.836 36.9243 127.044 36.4628 126.311 36.2216C125.661 36.0103 124.957 35.975 124.751 35.9695C124.566 35.8435 123.83 35.3267 123.286 34.6421C122.647 33.8433 121.997 32.7073 121.991 32.6955L121.948 32.6202L121.862 32.603C121.751 32.5794 110.619 30.154 99.3139 22.0273C87.3503 14.6178 73.8471 0.865895 73.7124 0.72717L73 0L73.396 0.939337C73.471 1.11524 80.8938 18.6516 86.5457 25.2433C92.1958 31.8332 99.6321 36.5952 99.7063 36.6432L99.7876 36.6949L99.878 36.6614C99.8826 36.6595 100.346 36.4882 100.835 36.4882C101.12 36.4882 101.352 36.5462 101.522 36.6604C102.162 37.0911 102.208 37.9126 102.208 37.9207L102.219 38.1846L102.466 38.0939C102.469 38.093 102.714 38.006 103.045 38.006C103.412 38.006 103.735 38.1084 104.008 38.3124C104.687 38.8202 104.577 39.4612 104.573 39.4875L104.517 39.7668L104.796 39.716C104.796 39.716 104.922 39.6942 105.106 39.6942C105.436 39.6942 105.91 39.7604 106.294 40.0796C106.815 40.513 106.81 41.0924 106.81 41.116L106.798 41.5031L107.115 41.2801C107.116 41.2792 107.334 41.1286 107.674 41.1286C107.941 41.1286 108.212 41.2184 108.481 41.3943C109.098 41.7987 109.085 42.2448 109.084 42.2602L109.063 42.5694L109.349 42.4542C109.351 42.4533 109.594 42.359 109.926 42.359C110.252 42.359 110.551 42.4479 110.813 42.6229C111.322 42.9629 111.342 43.5405 111.343 43.5631L111.347 43.8079L111.584 43.749C111.587 43.7472 111.888 43.6719 112.277 43.6719C112.677 43.6719 113.018 43.7499 113.29 43.9013C113.947 44.2685 113.962 44.8914 113.962 44.9168V45.0329L117.604 46.9777L118.153 46.6187C118.187 46.7438 118.232 46.8934 118.285 47.0358C118.291 47.0494 118.295 47.0593 118.3 47.072C118.31 47.0965 118.319 47.1219 118.33 47.1464C118.34 47.1691 118.349 47.1899 118.359 47.2108C118.366 47.2262 118.373 47.2416 118.38 47.2552C118.392 47.2806 118.405 47.3041 118.417 47.325C118.424 47.3368 118.431 47.3477 118.436 47.3595C118.451 47.3812 118.464 47.4021 118.478 47.4211C118.485 47.4302 118.492 47.4393 118.497 47.4483C118.516 47.4719 118.536 47.4937 118.555 47.5109C118.558 47.5127 118.558 47.5154 118.56 47.5172C118.818 47.7484 119.425 48.3033 119.778 48.6279C119.841 48.686 119.898 48.7385 119.942 48.7775C119.987 48.8183 120.018 48.8473 120.036 48.8628C120.045 48.87 120.048 48.8745 120.048 48.8745L120.074 48.8945C120.075 48.8954 120.084 48.9008 120.094 48.9081C120.197 48.9698 120.654 49.2309 121.182 49.2309C121.465 49.2309 121.72 49.1565 121.949 49.006C122.388 48.7005 122.881 48.3858 123.294 48.1419C123.316 48.1292 123.339 48.1166 123.36 48.103C123.361 48.102 123.361 48.102 123.361 48.102C123.456 48.0467 123.545 47.9969 123.628 47.9515C123.634 47.9479 123.638 47.9452 123.643 47.9425C123.679 47.9225 123.714 47.9035 123.748 47.8853C123.773 47.8717 123.798 47.859 123.822 47.8473C123.833 47.8409 123.845 47.8337 123.856 47.8282C123.96 47.7756 124.046 47.7366 124.106 47.7158C124.274 47.6587 124.731 47.5662 125.252 47.5662C125.671 47.5662 126.254 47.6278 126.642 47.9271C127.384 48.501 127.647 49.0314 127.88 49.4993C128.096 49.9372 128.301 50.3497 128.831 50.6789C129.209 50.911 129.836 50.9536 130.564 51.0008C131.365 51.0552 132.271 51.115 132.826 51.4632C134.147 52.2901 134.343 53.0227 134.516 53.6664C134.668 54.2313 134.812 54.7635 135.598 55.2024C136.006 55.4309 136.638 55.4816 137.44 55.5451C138.411 55.6231 139.606 55.7174 140.807 56.1753C140.817 56.178 140.827 56.1816 140.838 56.1861C140.844 56.188 140.85 56.1907 140.857 56.1934C141.578 56.4736 142.3 56.8843 142.978 57.5018C144.704 59.0713 144.818 60.2926 144.911 61.2736C144.966 61.8494 145.013 62.3462 145.377 62.7588C145.672 63.0943 145.938 63.1487 146.132 63.1904C146.28 63.2221 146.347 63.2366 146.416 63.3518L146.443 63.3971C146.662 63.767 147.141 64.574 148.134 64.7689C148.277 64.7979 148.429 64.8134 148.592 64.8134H148.606C148.647 64.8134 148.686 64.8088 148.724 64.8025C148.993 64.7526 149.207 64.5459 149.431 64.3274C149.76 64.0073 150.134 63.6455 150.789 63.6111C150.832 63.6093 150.873 63.6029 150.914 63.5957C151.527 63.4869 151.966 62.8277 151.963 62.2565C151.963 61.3253 151.966 57.6813 151.967 57.2279C151.967 57.198 151.967 57.1826 151.967 57.1826C151.968 57.1763 151.968 57.1699 151.968 57.1608ZM80.723 7.97077C82.9902 11.7598 87.5519 18.668 92.7373 22.5604L92.956 22.7245C100.156 28.1293 106.373 32.7979 111.251 33.1153C111.425 33.1261 111.597 33.1325 111.76 33.1325C114.041 33.1325 115.045 32.0408 115.483 31.0543C118.871 32.3101 121.23 32.8695 121.698 32.9765C121.855 33.2476 122.414 34.1861 122.984 34.8996C123.651 35.7383 124.549 36.3159 124.587 36.3404L124.634 36.3694L124.69 36.3703C124.699 36.3703 125.493 36.3766 126.191 36.6051C126.472 36.6976 126.765 36.8255 127.019 36.9488L121.956 36.956L121.741 36.9569L120.466 39.7541C118.727 38.9807 104.555 32.6438 100.365 29.5465L100.338 29.5302C91.4942 24.9822 80.4002 9.95734 75.8214 3.3711C77.05 4.56068 78.7423 6.16825 80.723 7.97077ZM115.127 30.8984C114.534 32.2349 113.237 32.8569 111.277 32.7281C106.513 32.4189 100.338 27.7821 93.1875 22.4144L92.9687 22.2494C88.2886 18.7369 84.1103 12.7219 81.7011 8.83394C86.6171 13.2459 93.0546 18.6063 99.1006 22.3501C104.993 26.5861 110.843 29.2799 115.127 30.8984ZM117.585 46.5253L114.339 44.7926C114.306 44.536 114.155 43.9385 113.479 43.5604C113.148 43.3754 112.744 43.2811 112.277 43.2811C112.046 43.2811 111.844 43.3047 111.702 43.3283C111.647 43.0581 111.488 42.6057 111.028 42.2983C110.701 42.0807 110.331 41.9682 109.926 41.9682C109.734 41.9682 109.564 41.9945 109.439 42.0245C109.377 41.7787 109.198 41.4007 108.693 41.0688C108.36 40.8512 108.017 40.7388 107.674 40.7388C107.469 40.7388 107.295 40.7814 107.164 40.8285C107.109 40.5493 106.957 40.1286 106.541 39.7804C106.067 39.3878 105.5 39.3071 105.107 39.3071C105.056 39.3071 105.009 39.308 104.967 39.3098C104.956 38.997 104.839 38.453 104.239 38.0033C103.899 37.7494 103.497 37.6206 103.045 37.6206C102.854 37.6206 102.688 37.6433 102.564 37.6705C102.501 37.3359 102.312 36.7257 101.737 36.3395C101.501 36.1808 101.198 36.101 100.834 36.101C100.41 36.101 100.012 36.2107 99.8364 36.2688C99.031 35.7447 92.1424 31.1777 86.8395 24.9922C81.975 19.3181 75.7717 5.44018 74.1517 1.71819C74.2231 1.78891 74.3009 1.86598 74.3813 1.94577L74.3759 1.9494C77.954 7.22818 90.3814 24.8335 100.147 29.8666C104.384 32.9892 118.551 39.3261 120.304 40.105L118.613 43.8206C118.587 43.8741 118.069 45.0111 118.109 46.1817L117.585 46.5253ZM149.165 64.0454C148.948 64.2557 148.776 64.4208 148.606 64.4226L148.594 64.6166V64.4226C147.504 64.4226 147.013 63.5939 146.775 63.1949L146.749 63.1478C146.592 62.8875 146.391 62.8458 146.211 62.8077C146.04 62.7733 145.878 62.7397 145.668 62.4995C145.386 62.1812 145.347 61.7632 145.297 61.2346C145.203 60.2427 145.076 58.8845 143.24 57.2107C142.527 56.5624 141.773 56.1308 141.023 55.8353C141.015 55.8316 141.007 55.8289 140.999 55.8244C140.988 55.8207 140.977 55.8162 140.965 55.8117C139.714 55.3329 138.479 55.2332 137.474 55.1543C136.75 55.0972 136.124 55.0473 135.79 54.8587C135.145 54.4997 135.034 54.0844 134.893 53.5585C134.71 52.8821 134.484 52.0371 133.034 51.1304C132.396 50.7306 131.438 50.6662 130.594 50.6109C129.945 50.5664 129.332 50.5256 129.038 50.3434C128.602 50.0741 128.437 49.7414 128.229 49.3216C127.99 48.8401 127.694 48.2417 126.88 47.6133C126.407 47.2488 125.735 47.1727 125.254 47.1727H125.254C124.683 47.1727 124.181 47.276 123.983 47.344C123.936 47.3604 123.88 47.3848 123.816 47.413C123.812 47.4157 123.807 47.4175 123.803 47.4193C123.785 47.4284 123.765 47.4383 123.746 47.4474C123.728 47.4556 123.711 47.4637 123.692 47.4728C123.687 47.4764 123.679 47.4791 123.673 47.4828C123.168 47.7394 122.348 48.2516 121.734 48.6787C121.575 48.783 121.391 48.8347 121.185 48.8347C120.821 48.8347 120.486 48.6733 120.35 48.5989C120.327 48.5862 120.308 48.5762 120.297 48.5699C120.234 48.511 119.952 48.2526 119.642 47.9706C119.333 47.6877 118.996 47.3812 118.822 47.2225C118.821 47.2225 118.821 47.2207 118.82 47.2207C118.808 47.2099 118.797 47.1953 118.785 47.1781C118.779 47.1691 118.774 47.1618 118.767 47.1509C118.761 47.14 118.755 47.1301 118.748 47.1192C118.734 47.0947 118.721 47.0657 118.705 47.034C118.7 47.0185 118.692 47.0058 118.686 46.9886C118.679 46.9723 118.671 46.9542 118.665 46.9351C118.656 46.9152 118.649 46.8925 118.641 46.8708C118.634 46.8517 118.625 46.8299 118.619 46.8091C118.613 46.7901 118.606 46.7728 118.6 46.752C118.588 46.7193 118.577 46.684 118.567 46.6468C118.566 46.6432 118.565 46.6404 118.564 46.6377C118.549 46.5888 118.536 46.538 118.521 46.4809C118.356 45.3121 118.957 43.9947 118.963 43.9802L120.659 40.2582L121.557 38.2852L121.989 37.3387L127.785 37.335C128.858 37.9062 141.476 44.662 146.351 48.9752C146.361 48.9843 146.371 48.9933 146.38 49.0006C146.444 49.0577 146.508 49.1166 146.569 49.1719C146.588 49.1901 146.609 49.2082 146.628 49.2254C146.677 49.2708 146.722 49.3143 146.769 49.3596C146.799 49.3859 146.83 49.4158 146.859 49.443C146.892 49.4739 146.924 49.5056 146.955 49.5364C146.994 49.5763 147.035 49.6153 147.073 49.6534C147.079 49.6597 147.085 49.6661 147.091 49.6715C147.151 49.7341 147.21 49.7958 147.266 49.8556C148.328 50.9881 149.128 52.009 149.732 52.9048C151.315 55.2586 151.544 56.7465 151.576 57.0956C151.581 57.1463 151.582 57.1726 151.582 57.1763C151.582 57.1763 151.582 57.1917 151.582 57.2216C151.581 57.6731 151.577 61.319 151.577 62.251C151.579 62.572 151.381 62.941 151.088 63.1142C151.04 63.1441 150.989 63.1677 150.936 63.1849C150.881 63.2022 150.826 63.213 150.768 63.2158C149.97 63.2638 149.505 63.7154 149.165 64.0454Z" fill="white"/>
<path d="M132.552 29.8041C132.07 29.7648 131.67 29.9682 131.634 30.2582L131.111 34.4175C131.074 34.7104 131.422 34.9709 131.9 35.0092C131.938 35.0121 131.977 35.0141 132.015 35.0141C132.449 35.0141 132.785 34.8195 132.817 34.5532L133.341 30.3958C133.378 30.1019 133.031 29.8415 132.552 29.8041ZM132.295 34.5129C132.293 34.5315 132.168 34.6082 131.951 34.5895C131.731 34.5728 131.632 34.4804 131.634 34.4578L132.158 30.3004C132.16 30.2837 132.251 30.2198 132.438 30.2198C132.459 30.2198 132.478 30.2208 132.5 30.2228C132.722 30.2405 132.821 30.3329 132.817 30.3535L132.295 34.5129Z" fill="white"/>
<path d="M135.07 29.803C134.763 29.7689 134.499 29.9704 134.473 30.2455L134.09 34.4455C134.066 34.7276 134.287 34.9747 134.597 35.0106C134.619 35.0124 134.643 35.0141 134.665 35.0141C134.944 35.0141 135.171 34.8214 135.194 34.5673L135.576 30.3672C135.602 30.0843 135.379 29.8363 135.07 29.803ZM134.855 34.5305C134.85 34.5874 134.748 34.6505 134.63 34.6374C134.499 34.6225 134.423 34.5366 134.429 34.4823L134.81 30.2823C134.815 30.2306 134.894 30.1736 135.002 30.1736C135.013 30.1736 135.024 30.1745 135.035 30.1762C135.166 30.1903 135.243 30.277 135.237 30.3304L134.855 34.5305Z" fill="white"/>
<path d="M138.073 29.0585C137.773 29.0179 137.519 29.2717 137.493 29.6107L137.07 35.0642C137.044 35.4072 137.261 35.7165 137.554 35.7541C137.574 35.7581 137.594 35.7591 137.613 35.7591C137.884 35.7591 138.108 35.5202 138.133 35.201L138.556 29.7505C138.582 29.4055 138.365 29.0962 138.073 29.0585ZM137.808 35.1593C137.8 35.2644 137.698 35.3487 137.587 35.3318C137.476 35.3179 137.389 35.2139 137.398 35.1048L137.82 29.6534C137.827 29.5542 137.913 29.4779 138.015 29.4779C138.024 29.4779 138.032 29.4779 138.042 29.4789C138.152 29.4947 138.24 29.5978 138.231 29.7059L137.808 35.1593Z" fill="white"/>
<path d="M140.266 29.8033C139.947 29.7679 139.677 29.9694 139.654 30.2583L139.305 34.4156C139.28 34.7104 139.512 34.9689 139.83 35.0092C139.856 35.0122 139.882 35.0141 139.908 35.0141C140.197 35.0141 140.421 34.8205 140.443 34.5542L140.791 30.3949C140.816 30.102 140.585 29.8426 140.266 29.8033ZM140.095 34.5109C140.093 34.5276 140.032 34.5935 139.907 34.5935C139.893 34.5935 139.88 34.5925 139.865 34.5905C139.717 34.5719 139.652 34.4785 139.653 34.4579L140.002 30.3006C140.003 30.2819 140.064 30.219 140.189 30.219C140.203 30.219 140.217 30.22 140.232 30.2219C140.378 30.2406 140.445 30.333 140.443 30.3536L140.095 34.5109Z" fill="white"/>
<path d="M143.011 29.8032C142.548 29.7681 142.152 29.9714 142.115 30.2464L141.541 34.4439C141.503 34.7268 141.835 34.9747 142.3 35.0097C142.335 35.0124 142.369 35.0141 142.402 35.0141C142.822 35.0141 143.163 34.8223 143.197 34.5674L143.77 30.369C143.807 30.0861 143.475 29.8382 143.011 29.8032ZM142.688 34.5288C142.681 34.5858 142.526 34.6506 142.351 34.6357C142.157 34.6226 142.041 34.535 142.049 34.4824L142.622 30.2832C142.629 30.2315 142.748 30.1746 142.909 30.1746C142.927 30.1746 142.942 30.1746 142.96 30.1763C143.155 30.1912 143.27 30.2771 143.263 30.3305L142.688 34.5288Z" fill="white"/>
<path d="M145.523 29.0588C145.226 29.0171 144.97 29.2699 144.943 29.6119L144.52 35.0632C144.494 35.4062 144.71 35.7165 145.003 35.7551C145.023 35.7571 145.043 35.7591 145.062 35.7591C145.335 35.7591 145.558 35.5182 145.583 35.202L146.006 29.7487C146.032 29.4067 145.816 29.0964 145.523 29.0588ZM145.257 35.1593C145.249 35.2664 145.145 35.3497 145.036 35.3338C144.925 35.318 144.838 35.2149 144.846 35.1068L145.268 29.6555C145.276 29.5554 145.362 29.4801 145.463 29.4801C145.472 29.4801 145.481 29.4801 145.49 29.4811C145.601 29.4949 145.689 29.599 145.679 29.7081L145.257 35.1593Z" fill="white"/>
<path d="M131.68 33.4996C132.048 32.8142 131.811 31.9747 131.152 31.6306L127.929 29.9472C127.742 29.8491 127.539 29.7992 127.323 29.7992C126.803 29.7992 126.322 30.0934 126.066 30.567C125.7 31.2542 125.935 32.092 126.593 32.436L129.818 34.1212C130.005 34.2184 130.208 34.2691 130.422 34.2691C130.944 34.2691 131.425 33.975 131.68 33.4996ZM130.422 33.8945C130.271 33.8945 130.128 33.8594 129.995 33.7912L126.772 32.106C126.299 31.86 126.133 31.2489 126.403 30.7429C126.592 30.3928 126.945 30.1739 127.324 30.1739C127.475 30.1739 127.621 30.2089 127.753 30.279L130.976 31.9624C131.449 32.211 131.615 32.8221 131.345 33.3254C131.156 33.6774 130.803 33.8945 130.422 33.8945Z" fill="white"/>
<path d="M123.6 33.4658C123.715 33.5032 123.833 33.5242 123.955 33.5242C124.43 33.5242 124.876 33.2204 125.061 32.766C125.174 32.4887 125.178 32.1915 125.071 31.9252C124.959 31.6512 124.744 31.4455 124.461 31.3486C124.347 31.309 124.228 31.2892 124.106 31.2892C123.63 31.2892 123.186 31.5929 123.001 32.0474C122.888 32.3247 122.885 32.6218 122.99 32.8881C123.103 33.1621 123.318 33.3668 123.6 33.4658ZM123.475 32.2136C123.584 31.9451 123.845 31.7591 124.105 31.7591C124.165 31.7591 124.226 31.7679 124.279 31.7877C124.422 31.8372 124.535 31.9451 124.593 32.0914C124.658 32.2499 124.655 32.4292 124.585 32.5998C124.451 32.9299 124.077 33.1291 123.778 33.0257C123.634 32.9761 123.524 32.8683 123.464 32.722C123.403 32.5646 123.406 32.3841 123.475 32.2136Z" fill="white"/>
<path d="M140.335 31.3294C140.259 31.3023 140.179 31.2892 140.097 31.2892C139.78 31.2892 139.483 31.4916 139.361 31.7949C139.279 31.9924 139.285 32.2137 139.375 32.3964C139.454 32.5579 139.592 32.6808 139.762 32.739C139.838 32.7661 139.917 32.7792 139.999 32.7792C140.316 32.7792 140.613 32.5759 140.736 32.2743C140.893 31.885 140.715 31.4613 140.335 31.3294ZM140.382 32.1514C140.301 32.3522 140.076 32.4751 139.895 32.4112C139.798 32.3776 139.746 32.3063 139.719 32.2522C139.671 32.153 139.669 32.0301 139.715 31.9178C139.781 31.7539 139.938 31.6408 140.098 31.6408C140.134 31.6408 140.169 31.6457 140.203 31.658C140.386 31.7219 140.467 31.9424 140.382 32.1514Z" fill="white"/>
<path d="M148.53 31.331C148.454 31.3031 148.374 31.2892 148.292 31.2892C147.975 31.2892 147.679 31.4931 147.556 31.7943C147.481 31.9785 147.479 32.1775 147.55 32.3527C147.624 32.5352 147.768 32.6736 147.957 32.7391C148.033 32.7653 148.112 32.7792 148.195 32.7792C148.512 32.7792 148.808 32.577 148.931 32.2749C149.006 32.0899 149.007 31.8917 148.936 31.7166C148.862 31.5324 148.719 31.3948 148.53 31.331ZM148.577 32.1504C148.496 32.3526 148.27 32.4746 148.09 32.4108C148.005 32.3821 147.939 32.3166 147.904 32.229C147.864 32.1324 147.867 32.0219 147.909 31.9163C147.976 31.7542 148.133 31.6396 148.292 31.6396C148.328 31.6396 148.363 31.6461 148.395 31.6568C148.482 31.6863 148.547 31.7509 148.583 31.8385C148.622 31.9351 148.62 32.0457 148.577 32.1504Z" fill="white"/>
<path d="M124.238 30.641C124.089 30.5765 123.931 30.5442 123.771 30.5442C123.133 30.5442 122.536 31.0539 122.287 31.8142C121.967 32.7884 122.321 33.8465 123.078 34.1713C123.228 34.238 123.385 34.2691 123.545 34.2691C124.184 34.2691 124.779 33.7584 125.03 32.9981C125.184 32.5314 125.188 32.0325 125.044 31.5905C124.895 31.1378 124.61 30.8002 124.238 30.641ZM124.654 32.8357C124.463 33.4186 124.017 33.8089 123.544 33.8089C123.432 33.8089 123.322 33.7863 123.218 33.7412C122.668 33.5046 122.419 32.7121 122.661 31.9755C122.851 31.3937 123.298 31.0023 123.77 31.0023C123.882 31.0023 123.991 31.0249 124.095 31.0701C124.358 31.183 124.56 31.426 124.667 31.7518C124.777 32.0895 124.773 32.4744 124.654 32.8357Z" fill="white"/>
<path d="M80.4403 87.7109C80.302 86.9359 74.0469 78.7918 69.1617 74.0425C68.2951 73.2001 67.2767 72.2652 66.185 71.2934C65.6889 70.8524 65.1766 70.4034 64.6579 69.9525C64.45 69.772 64.2413 69.5915 64.0307 69.4101C59.1988 65.2536 53.9323 61.0944 53.8591 61.0369L53.7986 60.9875H52.7666L52.4349 60.1083H51.4508V59.1222L50.1207 59.397V58.0777L48.7362 58.3525V57.087L47.3509 57.3619V56.0713L45.9891 56.4664L45.84 55.2441L44.3851 55.598L44.2451 54.4376L42.8941 54.8633L42.7612 53.5422L41.3714 53.9742V52.7518L39.7855 52.9898L39.1981 52.1824L39.1602 52.1591C39.1493 52.1519 38.8854 51.9911 38.449 51.7334C38.3252 51.6597 38.1869 51.578 38.036 51.49C37.8842 51.4011 37.7215 51.3068 37.548 51.2062C35.728 50.1536 32.7668 48.5109 30.813 47.7915C30.1705 47.5553 29.2696 47.2347 28.2457 46.8737C27.6321 46.6572 26.9743 46.4255 26.302 46.1893C22.7777 44.9508 18.7826 43.5471 17.5907 43.0082C17.2283 42.8447 16.9075 42.6561 16.6346 42.4496C16.1801 42.1056 15.8602 41.7095 15.7047 41.2901C15.6252 41.0754 15.59 40.8563 15.599 40.6381C15.6008 40.5842 15.6062 40.5294 15.6144 40.4755C15.6379 40.3138 15.6867 40.154 15.7598 39.9977C16.2225 39.0188 17.4018 39.3286 19.2886 39.9151C19.9809 40.1306 20.6975 40.3525 21.4412 40.506C21.5424 40.5258 21.6382 40.5438 21.7303 40.559C23.1093 40.7827 23.4753 40.3767 23.5702 40.1028C23.7545 39.5666 23.1464 38.8814 21.9834 38.3137C19.9718 37.3321 9.93033 33.913 8.79714 33.5277C4.47583 32.026 0.693108 30.7328 0.344295 30.6133L0 30.4975L0.053316 30.8549C0.0759075 31.0139 2.53025 46.7488 14.5779 57.793C26.5875 68.802 36.2892 74.2832 36.3868 74.3371L36.5215 74.4126L36.6398 74.312C36.8766 74.1081 37.4568 73.7282 37.7333 73.8512C37.7929 73.8773 37.8526 73.9195 37.9095 73.968L37.9086 73.9806L38.0017 74.0479C38.2384 74.285 38.4354 74.6344 38.5077 74.7853C38.5186 74.8086 38.6189 75.0188 38.8891 75.1113C39.1574 75.2029 39.4864 75.1472 39.8659 74.9433C39.9951 74.876 40.1894 74.7503 40.4596 74.5751C41.9886 73.5845 45.5671 71.2674 47.8489 72.5732C50.5879 74.1422 51.0216 75.1688 51.9686 77.4203C52.237 78.0562 52.3798 78.5996 52.5054 79.0792C52.8362 80.3455 53.0341 81.1107 55.0836 80.8018C56.6876 80.5593 57.4186 81.3271 58.4298 82.3896C58.9341 82.9186 59.5034 83.5177 60.2724 84.0897C62.3291 85.6201 67.7863 90.2526 69.0894 92.6371C70.4548 95.1312 72.4962 99.6235 72.5161 99.6684L72.9209 99.4888C72.902 99.4475 71.2799 95.8766 69.9551 93.3215C70.5009 93.9995 71.2528 94.6417 72.3028 94.9201C72.9995 95.1051 73.6737 95.1994 74.3044 95.1994C75.3437 95.1994 76.2717 94.956 77.2016 94.445C77.2016 94.4459 77.2016 94.4477 77.2016 94.4486C77.2061 94.6085 77.2197 94.7899 77.235 94.9929C77.2748 95.5479 77.3254 96.2385 77.1953 96.772C77.029 97.4456 74.4852 98.7263 72.9218 99.3748L73.0917 99.7807C73.8029 99.487 77.3597 97.9629 77.6263 96.8753C77.7745 96.2745 77.7194 95.5461 77.6787 94.9605C77.6579 94.6821 77.6335 94.3552 77.6507 94.1702C78.2607 93.7472 78.7017 93.1912 78.9737 92.4988C79.299 92.0066 79.5863 91.4175 79.6848 90.7448C79.8132 89.8781 80.0318 89.3096 80.2072 88.8533C80.3743 88.4178 80.5072 88.0738 80.4403 87.7109ZM36.4745 73.88C35.2834 73.1911 26.0977 67.7548 14.8788 57.4705C3.96165 47.4619 0.995834 33.56 0.553944 31.1522C1.59858 31.5096 4.81651 32.6134 8.45104 33.8771C8.76732 34.9997 11.5163 44.0204 19.5588 49.383C20.326 49.894 21.1158 50.4158 21.9156 50.9448C28.7093 55.4327 36.4085 60.5187 37.7071 64.3258C38.7128 67.2743 38.1643 72.1269 37.9818 73.483C37.9601 73.4704 37.9375 73.4597 37.9149 73.4489C37.4161 73.2297 36.7537 73.6662 36.4745 73.88ZM48.5627 72.4834C48.4073 72.3891 48.2428 72.2912 48.0712 72.1933C47.9699 72.1358 47.8669 72.0873 47.763 72.0406C48.4769 72.2472 49.1429 72.5166 49.6959 72.8912C50.8454 73.6707 51.3234 74.7988 51.778 75.8945C51.0975 74.4817 50.3773 73.5908 48.5627 72.4834ZM58.7515 82.0878C57.6906 80.9733 56.8511 80.0904 55.0158 80.368C53.3648 80.6176 53.2573 80.2018 52.9338 78.9687C52.8109 78.4999 52.6581 77.9152 52.3798 77.2515C52.35 77.1824 52.322 77.1159 52.2931 77.0494C52.5678 77.5865 52.8958 78.0742 53.3784 78.4667C54.216 79.1483 55.2977 79.6593 56.3424 80.1542C57.4123 80.6607 58.5193 81.1852 59.3516 81.8867C60.3582 82.7354 63.3783 85.7486 65.7178 88.1384C63.7208 86.2596 61.5357 84.4804 60.5372 83.7386C59.7998 83.1889 59.2422 82.6034 58.7515 82.0878ZM68.5725 91.1265C68.6258 91.1866 68.6656 91.2351 68.6864 91.2621C68.6936 91.2738 68.7035 91.2872 68.7117 91.2998C68.6647 91.2432 68.6195 91.1848 68.5725 91.1265ZM74.3035 94.7584C73.7125 94.7584 73.0782 94.6704 72.4167 94.4944C70.6726 94.0319 69.8105 92.4081 69.3488 91.5342C69.2268 91.3052 69.1319 91.1238 69.0433 91.0034C68.6258 90.4313 61.3224 82.9743 59.6371 81.5517C58.7615 80.8134 57.6274 80.2773 56.5321 79.7581C55.5101 79.275 54.4537 78.7747 53.6567 78.1272C52.9419 77.5452 52.5822 76.6794 52.2009 75.7615C51.7165 74.5949 51.2159 73.3887 49.9444 72.5274C48.5347 71.5718 46.4988 71.2656 44.7032 70.9952C43.6044 70.8282 42.5679 70.6719 41.8476 70.3899C40.1695 69.7316 39.8749 66.9762 40.3114 64.6986C40.3186 64.6626 41.0777 61.1321 44.5189 60.8474C44.6201 60.8385 44.7258 60.8349 44.8342 60.8349C47.6247 60.8349 53.0422 63.5535 60.9393 68.9143C66.0531 72.3864 77.1157 82.9617 78.3763 87.5179C79.0225 89.8538 78.9258 91.3375 78.5788 92.294C78.2733 92.744 77.9254 93.1104 77.667 93.3861C77.6173 93.4382 77.5748 93.4831 77.535 93.5271C77.4148 93.6565 77.3308 93.7535 77.2838 93.8397C77.273 93.8603 77.2648 93.8846 77.2558 93.9079C77.2224 93.9277 77.1898 93.9475 77.1609 93.9645C76.2383 94.5061 75.3292 94.7584 74.3035 94.7584ZM79.7933 88.6971C79.6397 89.094 79.4354 89.6203 79.2972 90.3622C79.2755 89.4982 79.111 88.5112 78.8047 87.4011C77.5215 82.7587 66.3504 72.0532 61.1914 68.5506C53.1064 63.0631 47.7576 60.3948 44.8351 60.3948C44.715 60.3948 44.5975 60.3993 44.4845 60.4092C40.7154 60.7208 39.8858 64.5728 39.8777 64.615C39.5153 66.5065 39.4873 69.9373 41.685 70.8003C42.4531 71.1012 43.5131 71.2611 44.6372 71.4308C45.2788 71.5269 45.9503 71.6293 46.6099 71.7622C44.2758 71.5826 41.5286 73.36 40.2201 74.2078C39.9689 74.3704 39.771 74.4979 39.659 74.559C39.3337 74.7296 39.1448 74.7287 39.0445 74.7C39.021 74.6919 38.9993 74.682 38.983 74.6721C38.9785 74.6694 38.9758 74.6667 38.9713 74.6631C38.9604 74.6551 38.9496 74.6479 38.9415 74.6416C38.9415 74.6407 38.9415 74.6398 38.9397 74.6389C38.9207 74.62 38.9116 74.6039 38.9116 74.6039C38.9107 74.603 38.9098 74.6012 38.9098 74.5994C38.8755 74.5239 38.6613 74.065 38.3857 73.7974C38.5195 72.8956 39.2541 67.4917 38.1264 64.1857C36.779 60.2367 29.0129 55.1058 22.1605 50.5802C21.3607 50.0512 20.5718 49.5312 19.8055 49.0193C12.3856 44.0716 9.54356 35.9508 8.96522 34.0576C14.2878 35.9104 20.3125 38.0407 21.6779 38.6613C21.715 38.6784 21.7538 38.6963 21.7864 38.7125C22.8464 39.2289 23.2214 39.7552 23.15 39.9636C23.0922 40.1315 22.6123 40.2995 21.5297 40.0776C20.8077 39.9295 20.1019 39.7103 19.4197 39.4984C17.5889 38.929 16.0075 38.4377 15.3577 39.8145C15.111 40.339 15.0857 40.903 15.2872 41.4455C15.5764 42.2277 16.3292 42.9256 17.4045 43.4114C18.6136 43.9584 22.6186 45.3648 26.152 46.6069C26.8234 46.8431 27.4812 47.074 28.0939 47.2904C29.116 47.6505 30.0169 47.9712 30.6567 48.2074C32.4098 48.8522 34.9997 50.2596 36.8124 51.2951C37.9004 51.9166 38.7083 52.4052 38.8881 52.5147L39.5822 53.4685L40.925 53.2665V54.5759L42.3709 54.126L42.5028 55.4489L43.8664 55.0196L44.002 56.1449L45.4569 55.792L45.6096 57.0367L46.9054 56.6613V57.9016L48.2907 57.6259V58.8922L49.6761 58.6165V59.9394L51.0044 59.6646V60.5493H52.125L52.4566 61.4303H53.6413C53.6946 61.4725 53.7814 61.5417 53.8989 61.6351C53.9576 61.6818 54.0245 61.7348 54.0977 61.7932C54.1356 61.8228 54.1736 61.8542 54.2142 61.8866C56.4806 63.6918 64.272 69.9543 68.6213 74.1377C68.6981 74.2123 68.7749 74.2859 68.8508 74.3587C73.9827 79.3486 79.8457 87.1891 80.0038 87.7891C80.0499 88.0307 79.9478 88.2947 79.7933 88.6971Z" fill="white"/>
<path d="M115.118 78.3116C115.123 78.253 115.125 78.1935 115.13 78.1313C115.134 78.0565 115.138 77.9799 115.142 77.9042C115.144 77.8546 115.146 77.8068 115.149 77.7554C115.153 77.6536 115.155 77.549 115.158 77.4462C115.159 77.4138 115.159 77.3813 115.16 77.348C115.166 77.0433 115.165 76.7296 115.155 76.4114C115.155 76.397 115.154 76.3835 115.154 76.3699C115.15 76.2203 115.143 76.0689 115.135 75.9165C115.134 75.8832 115.132 75.8498 115.13 75.8156C115.121 75.6641 115.111 75.5127 115.099 75.3585C115.097 75.336 115.096 75.3117 115.093 75.29C115.078 75.1088 115.061 74.9267 115.041 74.7438C115.038 74.7203 115.034 74.6969 115.033 74.6726C115.014 74.5112 114.992 74.348 114.97 74.184C114.965 74.1443 114.96 74.1064 114.953 74.0668C114.897 73.6729 114.827 73.2753 114.744 72.8751C114.74 72.8562 114.737 72.839 114.732 72.821C114.497 71.7042 114.155 70.5656 113.676 69.4488C111.734 64.9164 107.603 60.1145 102.046 55.9256C96.9716 52.0999 94.2962 50.0474 94.2701 50.0266L94.2196 49.9879H92.2157L88.3251 47.6306L87.7095 46.3236L75.615 39.781L75.5681 39.7558L74.1538 39.8441C74.0934 39.5944 73.9357 39.2059 73.5309 38.8363C73.4236 38.7308 73.3002 38.6263 73.1514 38.5262C72.7286 38.2405 72.2572 38.0764 71.8588 38.0764C71.4072 38.0764 71.1079 38.2927 71.0592 38.6569C71.0304 38.8715 70.9871 38.9905 70.9528 39.0536L63.7243 34.2715L63.6747 34.248C63.5756 34.2183 53.7157 31.1994 49.1104 28.7827C44.5005 26.3642 36.2632 20.6915 36.1803 20.6338L35.8594 20.412L35.8873 20.8024C35.8918 20.8673 36.4534 27.4071 44.7628 34.6077C51.7894 40.696 63.7793 45.2085 63.8992 45.2536L65.4442 45.4744L65.5127 46.018L69.4375 49.3217L69.4898 49.3659H69.9243L70.0857 49.8166L74.2476 54.0145L74.4251 54.193C74.4251 54.1948 74.426 54.1966 74.4269 54.1984C74.4296 54.2174 74.436 54.2354 74.4441 54.2543C74.4477 54.2606 74.4495 54.2669 74.454 54.2732C74.4567 54.2778 74.4585 54.285 74.463 54.2895C74.4702 54.3012 74.4819 54.3129 74.4954 54.3273C74.4954 54.3273 74.4963 54.3282 74.4972 54.3291C74.5009 54.3336 74.5063 54.3354 74.509 54.3382C74.5189 54.3463 74.5279 54.3535 74.5414 54.3598C74.5531 54.367 74.5658 54.3715 74.5793 54.3769C74.5865 54.3787 74.591 54.3823 74.5982 54.3841C74.6216 54.3904 74.6469 54.3949 74.673 54.3949H74.6739C74.6802 54.3949 74.6893 54.3931 74.6965 54.3922C74.7109 54.3913 74.7244 54.3904 74.7388 54.3877C74.7442 54.3868 74.7514 54.385 74.7569 54.3841C74.7758 54.3796 74.7947 54.3751 74.8146 54.3688C74.8191 54.3679 74.8245 54.3661 74.8299 54.3634C74.8533 54.3562 74.8758 54.3472 74.8993 54.3382C74.9047 54.3354 74.9101 54.3336 74.9155 54.3318C74.9471 54.3183 74.9777 54.3039 75.0084 54.2886C75.0525 54.2669 75.1454 54.2129 75.2779 54.1362C76.6778 53.3213 77.8947 52.7507 78.9224 52.4235C78.9656 52.4091 79.008 52.3974 79.0513 52.3839C79.1225 52.3622 79.1928 52.3415 79.2622 52.3235C79.346 52.3009 79.4299 52.2793 79.5119 52.2586C79.5461 52.2504 79.5804 52.2423 79.6137 52.2351C79.7327 52.209 79.8517 52.1837 79.9689 52.1657C79.9716 52.1657 79.9743 52.1648 79.9779 52.1639C80.2375 52.1206 80.4908 52.0972 80.7342 52.0972C80.7874 52.0972 80.837 52.099 80.8884 52.1017C80.9073 52.1026 80.9253 52.1026 80.9443 52.1035C80.9839 52.1071 81.0227 52.1107 81.0605 52.1152C81.1074 52.1197 81.1525 52.1242 81.1967 52.1324C81.2264 52.1369 81.2552 52.1414 81.2859 52.1477C81.3589 52.1612 81.431 52.1756 81.5004 52.1973C83.7161 52.8355 84.4634 54.0019 84.4301 54.806C84.3904 55.7399 84.6167 56.7296 84.6257 56.772L84.6464 56.8603L90.7256 59.8026C93.0531 61.5982 96.557 64.3097 96.7066 64.4486C96.7841 64.527 96.913 64.5495 97.1961 64.6009C97.8532 64.7199 99.2216 64.966 100.142 66.0837C101.342 67.5359 100.986 71.0046 100.983 71.0398L100.98 71.0623L100.984 71.0849C100.986 71.1056 100.991 71.1281 100.996 71.1507C100.997 71.1588 101.001 71.1669 101.002 71.1741C101.006 71.1903 101.01 71.2057 101.015 71.2219C101.017 71.2282 101.019 71.2345 101.022 71.2408C101.028 71.2597 101.035 71.2787 101.042 71.2976C101.042 71.2994 101.042 71.3012 101.043 71.303C101.134 71.5302 101.323 71.7934 101.666 71.9133C101.682 71.9178 101.696 71.9214 101.71 71.9259C101.735 71.9331 101.759 71.9412 101.784 71.9475C101.912 71.9755 102.056 71.9872 102.22 71.9728C102.35 71.962 102.511 71.9358 102.697 71.907C102.785 71.8916 102.877 71.8772 102.974 71.8628C102.988 71.861 103.001 71.8583 103.015 71.8565C103.112 71.8421 103.214 71.8285 103.319 71.8159C103.331 71.8141 103.344 71.8141 103.356 71.8123C103.456 71.8006 103.558 71.7916 103.664 71.7835C103.679 71.7826 103.694 71.7817 103.71 71.7799C103.819 71.7736 103.929 71.77 104.041 71.7691C104.069 71.7691 104.097 71.7691 104.125 71.7691C104.171 71.77 104.216 71.7718 104.261 71.7736C104.313 71.7754 104.363 71.779 104.415 71.7826C104.444 71.7844 104.473 71.7871 104.503 71.7898C104.639 71.8042 104.776 71.8231 104.911 71.8529C104.919 71.8547 104.927 71.8556 104.933 71.8574C105.482 71.98 106.017 72.2459 106.45 72.7678C106.451 72.7678 106.452 72.7687 106.452 72.7687C106.486 72.8111 106.52 72.8553 106.553 72.9003C106.563 72.9148 106.573 72.9283 106.584 72.9427C106.61 72.9806 106.637 73.0193 106.663 73.0599C106.68 73.086 106.697 73.1149 106.714 73.1428C106.732 73.1735 106.751 73.205 106.771 73.2375C106.798 73.2871 106.824 73.3366 106.849 73.388C106.858 73.4042 106.867 73.4187 106.873 73.434C106.908 73.5061 106.941 73.5818 106.973 73.6584C108.015 76.196 108.642 78.3792 108.981 79.7494C109.02 79.9035 109.055 80.0505 109.087 80.1821C109.108 80.2758 109.129 80.3651 109.146 80.4471C109.492 81.9795 110.826 84.9912 110.882 85.1183L110.964 85.2995L111.139 85.2093C111.247 85.1543 113.782 83.8464 114.527 81.655C114.771 80.9348 114.979 79.9342 115.088 78.7524H115.089L115.103 78.5757C115.106 78.5487 115.107 78.518 115.11 78.4892C115.11 78.4279 115.115 78.3693 115.118 78.3116ZM109.785 79.6989C109.503 78.4495 108.845 75.8994 107.59 72.8481C106.625 70.4989 104.775 70.7081 103.427 70.8631C103.081 70.9019 102.753 70.9388 102.48 70.9316C101.811 70.9127 101.673 70.5449 101.652 70.462C101.686 70.0852 101.956 66.6949 100.704 65.1769C99.6948 63.9546 98.2354 63.6914 97.5332 63.5643C97.4097 63.5417 97.27 63.5165 97.2249 63.5003C96.8644 63.1884 92.1679 59.5655 91.2097 58.8264L86.6449 56.6134L87.0009 55.803L86.2437 45.9693L87.4219 46.6066L88.0322 47.9047L92.1102 50.3755H94.0907C94.4828 50.6757 97.124 52.6985 101.819 56.2375C107.324 60.3876 111.412 65.1363 113.33 69.6083C114.833 73.1185 114.87 76.5349 114.739 78.3648C114.195 78.3477 113.479 78.3143 112.849 78.2512C111.476 78.1142 110.639 79.0111 110.548 79.113L109.812 79.8134C109.803 79.7746 109.793 79.7359 109.785 79.6989ZM45.0089 34.3238C38.0138 28.2626 36.5886 22.708 36.32 21.1846C37.9516 22.2987 44.8529 26.9735 48.9364 29.1153C52.104 30.7766 57.7253 32.7165 61.0002 33.7892C59.164 33.4268 57.1087 32.9608 55.7926 32.4749C52.9784 31.4356 47.1498 28.835 47.0957 28.8079L47.4112 29.0495C47.4977 29.1063 56.0342 34.7258 59.9987 36.599C63.4773 38.2432 67.6004 39.973 68.5803 40.3805L65.2964 45.0742L64.0109 44.8948C63.4674 44.6893 51.8552 40.2561 45.0089 34.3238ZM65.8661 45.8251L65.7804 45.1418L65.7137 45.1319L69.1554 40.2128L68.939 40.1235C68.8913 40.1037 64.1074 38.126 60.1582 36.2591C57.5847 35.0431 53.0343 32.2406 50.1605 30.426C51.93 31.2589 54.1592 32.2712 55.6628 32.8265C57.6928 33.5765 61.4356 34.2769 63.4953 34.6293L63.608 34.6645L71.0051 39.5574L71.0808 39.543C71.1782 39.5232 71.4153 39.4105 71.5 38.7714C71.5126 38.6731 71.5631 38.6073 71.6578 38.565C71.9129 38.4505 72.4591 38.5298 73.0099 38.9021C73.1054 38.967 73.1902 39.0337 73.265 39.1013C73.5453 39.3772 73.6634 39.6503 73.7139 39.8315C73.1875 40.2849 72.5898 40.7645 72.0598 41.189C70.8997 42.1175 70.238 42.6575 70.1217 42.9468C70.0748 43.0631 69.9342 43.4192 69.6467 48.9909H69.6268L65.8661 45.8251ZM81.6032 51.8322C79.6363 51.2652 76.557 52.9599 75.295 53.69C75.2193 53.7351 75.1472 53.7757 75.0877 53.8108C74.966 53.8811 74.8813 53.9307 74.8398 53.9523C74.8046 53.9695 74.7758 53.9812 74.7533 53.9911L70.412 49.612L70.1902 48.9909H70.0217C70.2768 44.0402 70.4192 43.2109 70.4697 43.0865C70.5544 42.8738 71.4784 42.1346 72.2933 41.482C72.7782 41.0944 73.3191 40.6608 73.8131 40.2416L75.4843 40.1371L85.8507 45.7457L86.6196 55.7399L86.3078 56.4511L85.245 55.9355C85.1918 55.6777 85.0457 54.8862 85.0764 54.157C85.117 53.187 84.0316 51.8502 81.8799 51.1732C79.7408 50.4999 76.4588 52.4821 75.3797 53.1329C75.2517 53.2105 75.1517 53.2709 75.121 53.288C74.9408 53.3069 74.2421 52.7057 73.6184 51.9872L70.6563 48.9242C70.5851 48.8494 70.4661 48.8467 70.3912 48.9197C70.3164 48.9918 70.3146 49.1099 70.3867 49.1847L73.3398 52.2414C73.8726 52.8562 74.8317 53.8496 75.2788 53.6278C75.3311 53.6017 75.4275 53.544 75.5727 53.4557C78.3698 51.7664 80.4539 51.1192 81.7655 51.5329C83.7161 52.1468 84.733 53.3358 84.6996 54.1425C84.6987 54.1534 84.6987 54.1633 84.6987 54.1741C84.4193 53.3331 83.5115 52.3821 81.6032 51.8322ZM100.43 65.8386C99.4208 64.6162 97.9614 64.353 97.2592 64.2259C97.1357 64.2043 96.9969 64.1781 96.95 64.1619C96.5903 63.8509 91.8939 60.2272 90.9357 59.488L84.97 56.5962C84.9457 56.4727 84.8997 56.2293 84.861 55.9301C84.8808 56.031 84.8952 56.095 84.8979 56.1049L84.9168 56.1933L90.9961 59.1355C93.3236 60.9312 96.8274 63.6418 96.9779 63.7815C97.0555 63.859 97.1844 63.8825 97.4665 63.9338C98.1237 64.0528 99.4929 64.2989 100.415 65.4158C100.887 65.9909 101.122 66.8905 101.232 67.7721C101.091 67.0456 100.846 66.3425 100.43 65.8386ZM114.167 81.5288C113.581 83.2568 111.72 84.4395 111.14 84.7748C110.839 84.0816 109.799 81.6424 109.51 80.3615C109.397 79.8621 109.223 79.1499 108.975 78.2846C108.605 76.9883 108.068 75.3414 107.316 73.5106C107.279 73.4232 107.241 73.3393 107.202 73.2582C107.199 73.2537 107.197 73.2492 107.195 73.2447C107.158 73.1681 107.119 73.096 107.079 73.0256C107.073 73.0148 107.066 73.0049 107.06 72.9941C107.022 72.9292 106.983 72.8652 106.943 72.8057C106.936 72.7958 106.93 72.7868 106.924 72.7777C106.88 72.7137 106.836 72.6515 106.791 72.5939C106.787 72.5893 106.785 72.5848 106.781 72.5812C106.446 72.1558 106.053 71.8736 105.639 71.6924C105.634 71.6897 105.63 71.6879 105.625 71.6861C105.56 71.6582 105.494 71.632 105.426 71.6086C105.413 71.6032 105.399 71.5978 105.385 71.5924C105.316 71.5698 105.248 71.5482 105.178 71.5302C105.149 71.5221 105.12 71.5148 105.09 71.5085C105.051 71.4995 105.013 71.4896 104.975 71.4824C104.692 71.4229 104.389 71.3904 104.065 71.3904C103.742 71.3904 103.431 71.4184 103.152 71.4554C103.143 71.4563 103.134 71.4572 103.127 71.4581C103.1 71.4617 103.074 71.4653 103.048 71.4689C103.02 71.4734 102.991 71.477 102.963 71.4815C102.944 71.4842 102.923 71.4878 102.904 71.4905C102.869 71.4959 102.835 71.5004 102.801 71.5067C102.788 71.5085 102.777 71.5103 102.763 71.5121C102.719 71.5194 102.674 71.5266 102.633 71.5329C102.452 71.5608 102.298 71.587 102.182 71.596C101.525 71.6492 101.376 71.1642 101.353 71.0479C101.356 71.0019 101.366 70.9046 101.374 70.7676C101.525 71.0191 101.851 71.2895 102.466 71.3084C102.77 71.3156 103.106 71.2787 103.466 71.2381C104.833 71.0822 106.382 70.9064 107.241 72.9923C108.484 76.0184 109.137 78.5451 109.415 79.7818C109.76 81.3152 110.973 84.0474 111.023 84.1628C111.055 84.2331 111.123 84.2745 111.195 84.2745C111.22 84.2745 111.247 84.2691 111.271 84.2574C111.366 84.215 111.408 84.1042 111.367 84.0104C111.354 83.9861 110.37 81.7668 109.919 80.2253L110.823 79.3654C110.854 79.3302 111.586 78.5027 112.808 78.6253C113.441 78.6884 114.159 78.7209 114.706 78.7389C114.604 79.8729 114.403 80.8356 114.167 81.5288Z" fill="white"/>
<path d="M75.5701 47.9263C75.7684 48.0128 75.9757 48.057 76.1866 48.057C76.6851 48.057 77.1043 47.8064 77.281 47.4026C77.537 46.8139 77.1863 46.0919 76.5003 45.7917C76.3011 45.7052 76.0938 45.661 75.8837 45.661C75.3844 45.661 74.9652 45.9116 74.7894 46.3163C74.5325 46.905 74.8823 47.6261 75.5701 47.9263ZM75.1329 46.466C75.2482 46.2019 75.5349 46.0369 75.8837 46.0369C76.0388 46.0369 76.2002 46.0712 76.3498 46.1361C76.8474 46.3524 77.1106 46.8527 76.9366 47.2511C76.8212 47.5161 76.5337 47.6811 76.1857 47.6811C76.0298 47.6811 75.8684 47.6468 75.7188 47.5819C75.223 47.3647 74.9589 46.8644 75.1329 46.466Z" fill="white"/>
<path d="M75.1004 51.8232C75.2483 51.8872 75.4033 51.9205 75.5593 51.9205C75.9352 51.9205 76.2534 51.7303 76.3859 51.4238C76.4814 51.2021 76.4706 50.9524 76.3534 50.718C76.2425 50.4963 76.0469 50.316 75.8035 50.2096C75.6557 50.1456 75.5007 50.1132 75.3447 50.1132C74.9688 50.1132 74.6524 50.3025 74.5181 50.6098C74.3252 51.0552 74.5866 51.5996 75.1004 51.8232ZM74.8625 50.7595C74.9364 50.5918 75.1212 50.4891 75.3447 50.4891C75.4475 50.4891 75.5547 50.5116 75.653 50.554C75.8171 50.6261 75.946 50.7433 76.0181 50.8875C76.0848 51.0191 76.0929 51.1561 76.0415 51.2742C75.9685 51.4419 75.7837 51.5464 75.5593 51.5464C75.4565 51.5464 75.3501 51.523 75.2501 51.4797C74.9256 51.3382 74.7516 51.0155 74.8625 50.7595Z" fill="white"/>
<path d="M82.8491 47.1628C82.9978 47.2268 83.1519 47.2601 83.3088 47.2601C83.6847 47.2601 84.0011 47.0699 84.1354 46.7635C84.3292 46.3181 84.0678 45.7746 83.5531 45.5501C83.4043 45.4852 83.2502 45.4528 83.0934 45.4528C82.7166 45.4528 82.4002 45.6439 82.2667 45.9504C82.0738 46.3939 82.3344 46.9383 82.8491 47.1628ZM82.6129 46.0991C82.685 45.9314 82.8698 45.8278 83.0943 45.8278C83.197 45.8278 83.3034 45.8503 83.4034 45.8936C83.728 46.0351 83.9019 46.3578 83.7911 46.6129C83.718 46.7806 83.5342 46.8851 83.3097 46.8851C83.2069 46.8851 83.1006 46.8617 83.0005 46.8184C82.6742 46.6769 82.5011 46.3542 82.6129 46.0991Z" fill="white"/>
<path d="M75.6035 42.5132C75.7081 42.5583 75.8171 42.5817 75.928 42.5817C76.1984 42.5817 76.4274 42.4429 76.5229 42.2203C76.5924 42.0616 76.5842 41.8741 76.5022 41.7082C76.422 41.5514 76.2841 41.4234 76.1128 41.3477C76.0073 41.3026 75.8992 41.2792 75.7892 41.2792C75.5179 41.2792 75.2907 41.418 75.1933 41.6406C75.1239 41.8002 75.132 41.9877 75.215 42.1535C75.2943 42.3104 75.4322 42.4384 75.6035 42.5132ZM75.5377 41.7903C75.5746 41.7064 75.6702 41.6542 75.7892 41.6542C75.846 41.6542 75.9064 41.6677 75.9632 41.692C76.0524 41.7308 76.1272 41.7993 76.166 41.8768C76.1858 41.9156 76.2138 41.994 76.1795 42.0706C76.1254 42.1959 75.9262 42.2446 75.7549 42.1698C75.6639 42.1301 75.5909 42.0634 75.5512 41.985C75.5305 41.9462 75.5025 41.8678 75.5377 41.7903Z" fill="white"/>
<path d="M112.859 80.3038C112.755 80.2578 112.646 80.2353 112.536 80.2353C112.265 80.2353 112.036 80.3741 111.941 80.5958C111.87 80.7563 111.878 80.9429 111.961 81.1087C112.041 81.2674 112.179 81.3936 112.351 81.4693C112.455 81.5153 112.564 81.5369 112.674 81.5369C112.945 81.5369 113.173 81.3999 113.269 81.1763C113.41 80.8554 113.226 80.4642 112.859 80.3038ZM112.927 81.0276C112.871 81.152 112.672 81.1998 112.501 81.1259C112.41 81.0862 112.336 81.0195 112.297 80.9411C112.278 80.9023 112.249 80.8248 112.283 80.7464C112.32 80.6625 112.416 80.6112 112.535 80.6112C112.592 80.6112 112.653 80.6247 112.708 80.6481C112.884 80.7238 112.982 80.8969 112.927 81.0276Z" fill="white"/>
</svg>
