<svg width="143" height="26" viewBox="0 0 143 26" fill="none" xmlns="http://www.w3.org/2000/svg">
<path d="M9.736 0.799998C12.16 0.799998 14.2 1.616 15.856 3.248C17.512 4.88 18.34 6.884 18.34 9.26C18.34 11.636 17.512 13.64 15.856 15.272C14.2 16.904 12.16 17.72 9.736 17.72H5.308V26H0.34V0.799998H9.736ZM9.736 13.076C10.792 13.076 11.668 12.716 12.364 11.996C13.06 11.252 13.408 10.34 13.408 9.26C13.408 8.156 13.06 7.244 12.364 6.524C11.668 5.804 10.792 5.444 9.736 5.444H5.308V13.076H9.736ZM35.208 26L33.696 21.464H23.652L22.14 26H16.776L25.596 0.799998H31.752L40.608 26H35.208ZM25.236 16.82H32.148L28.692 6.524L25.236 16.82ZM59.7293 0.799998L51.0893 16.172V26H46.1573V16.172L37.5533 0.799998H43.1693L48.6413 11.312L54.1133 0.799998H59.7293Z" fill="white"/>
<path d="M71.5407 0.799998C73.9647 0.799998 76.0047 1.616 77.6607 3.248C79.3167 4.88 80.1447 6.884 80.1447 9.26C80.1447 11.636 79.3167 13.64 77.6607 15.272C76.0047 16.904 73.9647 17.72 71.5407 17.72H67.1127V26H62.1447V0.799998H71.5407ZM71.5407 13.076C72.5967 13.076 73.4727 12.716 74.1687 11.996C74.8647 11.252 75.2127 10.34 75.2127 9.26C75.2127 8.156 74.8647 7.244 74.1687 6.524C73.4727 5.804 72.5967 5.444 71.5407 5.444H67.1127V13.076H71.5407ZM88.3471 21.248H97.9591V26H83.3791V0.799998H88.3471V21.248ZM117.685 26L116.173 21.464H106.129L104.617 26H99.2525L108.073 0.799998H114.229L123.085 26H117.685ZM107.713 16.82H114.625L111.169 6.524L107.713 16.82ZM142.206 0.799998L133.566 16.172V26H128.634V16.172L120.03 0.799998H125.646L131.118 11.312L136.59 0.799998H142.206Z" fill="#6C5ECF"/>
</svg>
