<svg width="38" height="38" viewBox="0 0 38 38" fill="none" xmlns="http://www.w3.org/2000/svg">
<rect width="38" height="38" rx="10" fill="#6C5ECF"/>
<g clip-path="url(#clip0)">
<path d="M25.649 8.82275C22.1604 8.82275 19.3146 11.6311 19.2875 15.0936L15.326 20.7467C14.2208 20.6467 13.2677 20.8748 12.425 21.3863L7 19.2019V25.1675L10.2083 26.4519C10.6719 28.5759 12.5812 30.1769 14.8406 30.1769C17.2969 30.1769 19.3323 28.2988 19.5562 25.9071L25.6552 21.4707C29.1542 21.4707 32 18.6467 32 15.1446L31.999 15.1436C31.999 11.6582 29.1531 8.82275 25.649 8.82275ZM14.8406 28.9186C13.5 28.9186 12.3458 28.1675 11.7594 27.0728C12.3281 27.2894 12.9031 27.528 13.4729 27.7509C14.8969 28.3342 16.5146 27.6394 17.0833 26.2217C17.6583 24.804 16.9604 23.204 15.5385 22.6363L14.0875 22.053C14.3385 21.9967 14.5896 21.9696 14.8406 21.9696C16.7771 21.9696 18.3281 23.5144 18.3281 25.4436C18.3281 27.3738 16.7771 28.9186 14.8406 28.9186ZM25.6552 19.3811C23.3 19.3811 21.3865 17.4905 21.3865 15.1446C21.3865 12.8092 23.2948 10.9082 25.6552 10.9082C27.9937 10.9082 29.9073 12.8092 29.9073 15.1446C29.9073 17.4967 27.9927 19.3873 25.6552 19.3811Z" fill="#C9CEE1"/>
<path d="M25.6668 11.7456C23.7866 11.7456 22.2637 13.2633 22.2637 15.1362C22.2637 17.0091 23.7814 18.5269 25.6668 18.5269C27.5355 18.5269 29.0699 17.0144 29.0699 15.1362C29.0699 13.2581 27.5355 11.7456 25.6668 11.7456Z" fill="#C9CEE1"/>
</g>
<defs>
<clipPath id="clip0">
<rect width="25" height="25" fill="white" transform="translate(7 7)"/>
</clipPath>
</defs>
</svg>
