<svg width="28" height="28" viewBox="0 0 28 28" fill="none" xmlns="http://www.w3.org/2000/svg">
<path d="M20.8691 12.7128C22.4966 12.4842 23.7496 11.0888 23.7531 9.39832C23.7531 7.73232 22.5386 6.35099 20.9461 6.08965" stroke="white" stroke-width="1.5" stroke-linecap="round" stroke-linejoin="round"/>
<path d="M23.0166 16.6254C24.5928 16.861 25.6929 17.4129 25.6929 18.5504C25.6929 19.3332 25.1749 19.8419 24.3373 20.1615" stroke="white" stroke-width="1.5" stroke-linecap="round" stroke-linejoin="round"/>
<path fill-rule="evenodd" clip-rule="evenodd" d="M13.8682 17.1078C10.1185 17.1078 6.91602 17.6759 6.91602 19.9451C6.91602 22.2131 10.0987 22.7976 13.8682 22.7976C17.6178 22.7976 20.8192 22.2353 20.8192 19.9649C20.8192 17.6946 17.6377 17.1078 13.8682 17.1078Z" stroke="white" stroke-width="1.5" stroke-linecap="round" stroke-linejoin="round"/>
<path fill-rule="evenodd" clip-rule="evenodd" d="M13.8686 13.8692C16.3291 13.8692 18.3241 11.8754 18.3241 9.41372C18.3241 6.95322 16.3291 4.95822 13.8686 4.95822C11.4081 4.95822 9.41312 6.95322 9.41312 9.41372C9.40379 11.8661 11.3836 13.8611 13.836 13.8692H13.8686Z" stroke="white" stroke-width="1.5" stroke-linecap="round" stroke-linejoin="round"/>
<path d="M6.86642 12.7128C5.23775 12.4842 3.98592 11.0888 3.98242 9.39832C3.98242 7.73232 5.19692 6.35099 6.78942 6.08965" stroke="white" stroke-width="1.5" stroke-linecap="round" stroke-linejoin="round"/>
<path d="M4.71833 16.6254C3.14216 16.861 2.04199 17.4129 2.04199 18.5504C2.04199 19.3332 2.55999 19.8419 3.39766 20.1615" stroke="white" stroke-width="1.5" stroke-linecap="round" stroke-linejoin="round"/>
</svg>
