<svg width="30" height="30" viewBox="0 0 30 30" fill="none" xmlns="http://www.w3.org/2000/svg">
<rect width="30" height="30" rx="6" fill="#47418C"/>
<g clip-path="url(#clip0)">
<path d="M22.2609 18.251C21.8908 17.8067 21.4701 17.4085 21.0634 17.0234C20.9187 16.8865 20.7692 16.7449 20.625 16.6041C20.2111 16.1994 20.1961 16.0474 20.5238 15.5877C20.7505 15.2709 20.9908 14.9536 21.2233 14.6468C21.4342 14.3684 21.6522 14.0806 21.8612 13.7917L21.9041 13.7324C22.3035 13.1797 22.7166 12.6082 22.9365 11.9188C22.9935 11.7369 23.0535 11.4693 22.9164 11.2454C22.7795 11.0218 22.5138 10.9536 22.3258 10.9217C22.2328 10.906 22.1405 10.9038 22.0548 10.9038L19.439 10.9019L19.4174 10.9018C19.0219 10.9018 18.7554 11.0881 18.6027 11.4716C18.4569 11.838 18.2967 12.2282 18.1139 12.5991C17.7502 13.3379 17.2882 14.1887 16.6198 14.8983L16.5915 14.9285C16.5126 15.0133 16.4232 15.1094 16.3578 15.1094C16.3478 15.1094 16.3369 15.1075 16.3245 15.1036C16.1861 15.0496 16.0931 14.7145 16.0974 14.5585C16.0974 14.5564 16.0975 14.5542 16.0975 14.5521L16.0956 11.5288C16.0956 11.5183 16.0949 11.5079 16.0935 11.4975C16.027 11.0061 15.8796 10.7001 15.3226 10.591C15.3079 10.5881 15.2927 10.5866 15.2777 10.5866H12.5578C12.1147 10.5866 11.8705 10.7668 11.641 11.0363C11.579 11.1084 11.45 11.2584 11.514 11.4404C11.5788 11.6251 11.7893 11.6646 11.8579 11.6774C12.1982 11.7422 12.39 11.9503 12.4443 12.314C12.5392 12.9455 12.5508 13.6195 12.481 14.4353C12.4615 14.662 12.423 14.8371 12.3596 14.9867C12.3448 15.0216 12.2926 15.1356 12.2393 15.1356C12.2223 15.1356 12.1733 15.129 12.0841 15.0675C11.8731 14.9229 11.7187 14.7167 11.5388 14.4619C10.9265 13.5966 10.4127 12.6434 9.96769 11.5472C9.80265 11.1437 9.49442 10.9178 9.09939 10.9111C8.66534 10.9045 8.27181 10.9013 7.89648 10.9013C7.48639 10.9013 7.10619 10.9051 6.73494 10.9128C6.41712 10.9185 6.19728 11.0137 6.08161 11.1962C5.96575 11.3789 5.97328 11.6188 6.10402 11.9092C7.1506 14.2359 8.09952 15.9276 9.18091 17.3946C9.93863 18.4212 10.6986 19.1317 11.5725 19.6306C12.4931 20.1573 13.5248 20.4133 14.7264 20.4133C14.8626 20.4133 15.0035 20.41 15.1455 20.4033C15.8437 20.3693 16.1028 20.1166 16.1355 19.4367C16.1511 19.0893 16.1891 18.7249 16.3599 18.4142C16.4677 18.2184 16.5682 18.2184 16.6013 18.2184C16.6649 18.2184 16.7438 18.2477 16.8285 18.3026C16.9805 18.4018 17.1109 18.5347 17.2177 18.6507C17.3182 18.761 17.4177 18.8725 17.5172 18.9839C17.732 19.2245 17.9541 19.4732 18.1861 19.7091C18.6939 20.2257 19.2533 20.4529 19.8958 20.4036H22.294C22.2991 20.4036 22.3043 20.4034 22.3094 20.4031C22.5484 20.3873 22.7553 20.2548 22.8772 20.0394C23.0282 19.7727 23.0252 19.4323 22.8691 19.1288C22.692 18.7856 22.4622 18.4924 22.2609 18.251Z" fill="#A4ACC3"/>
</g>
<defs>
<clipPath id="clip0">
<rect width="17" height="17" fill="white" transform="translate(6 7)"/>
</clipPath>
</defs>
</svg>
