<svg width="42" height="42" viewBox="0 0 42 42" fill="none" xmlns="http://www.w3.org/2000/svg">
<path fill-rule="evenodd" clip-rule="evenodd" d="M31.0956 14.6682H38.5C38.5 8.72304 34.9378 5.25 28.9022 5.25H13.0978C7.06222 5.25 3.5 8.72304 3.5 14.5923V27.4077C3.5 33.277 7.06222 36.75 13.0978 36.75H28.9022C34.9378 36.75 38.5 33.277 38.5 27.4077V26.8617H31.0956C27.6591 26.8617 24.8733 24.1457 24.8733 20.7953C24.8733 17.4449 27.6591 14.7288 31.0956 14.7288V14.6682ZM31.0957 17.2767H37.1935C37.9152 17.2767 38.5002 17.8471 38.5002 18.5507V22.9792C38.4918 23.6793 37.9117 24.2449 37.1935 24.2531H31.2357C29.496 24.2759 27.9748 23.1146 27.5802 21.4626C27.3826 20.437 27.66 19.3787 28.338 18.5714C29.0161 17.764 30.0255 17.2901 31.0957 17.2767ZM31.3605 21.9327H31.9361C32.6749 21.9327 33.2739 21.3488 33.2739 20.6284C33.2739 19.9081 32.6749 19.3241 31.9361 19.3241H31.3605C31.0072 19.3201 30.6668 19.4541 30.4155 19.6963C30.1642 19.9385 30.0227 20.2687 30.0227 20.6132C30.0227 21.3361 30.6192 21.9244 31.3605 21.9327ZM11.7913 14.6681H21.6691C22.4079 14.6681 23.0069 14.0842 23.0069 13.3639C23.0069 12.6435 22.4079 12.0596 21.6691 12.0596H11.7913C11.0585 12.0595 10.4621 12.6343 10.4536 13.3487C10.4535 14.0715 11.05 14.6598 11.7913 14.6681Z" fill="white"/>
</svg>
